<svg width="100" height="100" viewBox="0 0 100 100" xmlns="http://www.w3.org/2000/svg">
  <!-- <symbol id="icon-arrow" viewBox="0 0 28 28" fill="none" xmlns="http://www.w3.org/2000/svg">
    <path d="M26 2.675V26M26 26H2.74766M26 26L2 2" stroke="currentColor" stroke-width="3"/>
  </symbol> -->

  <symbol id="icon-arrow" width="30" height="30" viewBox="0 0 30 30" fill="none" xmlns="http://www.w3.org/2000/svg">
    <path d="M8.24987 25.1669L29.9995 3.41723L26.5824 0.00012207L4.83276 21.7498V3.41723L-0.000491858 3.41723L-0.000491858 30.0001L26.5824 30.0001L26.5824 25.1669H8.24987Z" fill="#2E4EEC"/>
  </symbol>


                <symbol id="icon-arrow-about" width="30" height="30" viewBox="0 0 30 30" fill="none" xmlns="http://www.w3.org/2000/svg">
              <g clip-path="url(#clip0_430_1975)">
              <path d="M8.24938 25.1669L29.999 3.41723L26.5819 0.00012207L4.83227 21.7498V3.41723L-0.000980139 3.41723L-0.000980139 30.0001L26.5819 30.0001L26.5819 25.1669H8.24938Z" fill="white"/>
              </g>
              <defs>
              <clipPath id="clip0_430_1975">
              <rect width="30" height="30" fill="white"/>
              </clipPath>
              </defs>
              </symbol>

                              <symbol id="icon-arrow-tennis" width="30" height="30" viewBox="0 0 30 30" fill="none" xmlns="http://www.w3.org/2000/svg">
              <g clip-path="url(#clip0_430_1975)">
              <path d="M8.24938 25.1669L29.999 3.41723L26.5819 0.00012207L4.83227 21.7498V3.41723L-0.000980139 3.41723L-0.000980139 30.0001L26.5819 30.0001L26.5819 25.1669H8.24938Z" fill="#2E4EEC"/>
              </g>
              <defs>
              <clipPath id="clip0_430_1975">
              <rect width="30" height="30" fill="#2E4EEC"/>
              </clipPath>
              </defs>
              </symbol>

              <symbol id="icon-arrow-work" width="30" height="30" viewBox="0 0 30 30" fill="none" xmlns="http://www.w3.org/2000/svg">
              <path d="M8.25036 25.1667L30 3.41711L26.5829 0L4.83325 21.7496V3.41711L0 3.41711L0 30L26.5829 30V25.1667H8.25036Z" fill="#2E4EEC"/>
              </symbol>

  <symbol id="icon-logo-photographer" viewBox="0 0 197 97" fill="none" xmlns="http://www.w3.org/2000/svg">
    <path d="M34.0828 97V6.09714L36.8537 8.86857H0V0H78.2795V8.86857H41.5643L44.1968 6.09714V97H34.0828ZM96.2756 97V0H104.727L149.062 75.66H144.629L188.549 0H197V97H187.163V15.3814H189.518L149.062 84.6671H144.213L103.48 15.3814H106.113V97H96.2756Z" fill="white"/>
  </symbol>


  <symbol id="icon-logo-vinyl" viewBox="0 0 600 130" fill="none" xmlns="http://www.w3.org/2000/svg">
    <path
      d="M70.0107 58.3997L55.1598 85.0663H40.309L25.4582 58.3997V99.9997H6.36426V25.333H26.519L47.7344 64.7997L68.9499 25.333H89.1046V99.9997H70.0107V58.3997ZM115.135 99.9997H94.4499L122.56 25.333H143.776L171.886 99.9997H151.201L146.428 86.6663H119.908L115.135 99.9997ZM124.682 72.7997H141.654L133.168 47.733L124.682 72.7997ZM218.556 25.333C226.547 25.333 232.594 27.4308 236.696 31.6263C240.868 35.7507 242.954 41.8307 242.954 49.8663V75.4663C242.954 83.502 240.868 89.6173 236.696 93.813C232.594 97.9373 226.547 99.9997 218.556 99.9997H177.186V25.333H218.556ZM223.86 49.8663C223.86 43.4663 220.678 40.2663 214.313 40.2663H196.28V85.0663H214.313C220.678 85.0663 223.86 81.8663 223.86 75.4663V49.8663ZM491.134 99.9997H470.98L445.521 55.1997V99.9997H426.427V25.333H446.582L472.04 70.133V25.333H491.134V99.9997ZM517.173 99.9997H496.488L524.599 25.333H545.814L573.924 99.9997H553.239L548.466 86.6663H521.947L517.173 99.9997ZM526.72 72.7997H543.692L535.206 47.733L526.72 72.7997ZM576.043 83.9997H595.137V99.9997H576.043V83.9997Z"
      fill="#f1f1f1"
    />
    <path
      d="M413.649 100H393.494L368.035 55.2002V100H348.941V25.3335H369.096L394.555 70.1335V25.3335H413.649V100Z"
      fill="#C5443E"
    />
    <path
      d="M295.028 103.333C316.997 103.333 334.807 85.4244 334.807 63.333C334.807 41.2416 316.997 23.333 295.028 23.333C273.059 23.333 255.249 41.2416 255.249 63.333C255.249 85.4244 273.059 103.333 295.028 103.333Z"
      fill="#fff"
    />
    <path
      d="M295.027 76.6667C302.35 76.6667 308.287 70.6971 308.287 63.3333C308.287 55.9695 302.35 50 295.027 50C287.704 50 281.768 55.9695 281.768 63.3333C281.768 70.6971 287.704 76.6667 295.027 76.6667Z"
      fill="#C5443E"
    />
    <path
      d="M295.028 66.6667C296.858 66.6667 298.342 65.1743 298.342 63.3333C298.342 61.4924 296.858 60 295.028 60C293.197 60 291.713 61.4924 291.713 63.3333C291.713 65.1743 293.197 66.6667 295.028 66.6667Z"
      fill="#000"
    />
  </symbol>

  <symbol id="icon-logo-dental" viewBox="0 0 220 100" fill="#fff" xmlns="http://www.w3.org/2000/svg">
    <path d="M53.3923 100C45.706 100 38.6145 98.7637 32.1178 96.2912C25.621 93.8187 19.9478 90.3388 15.0981 85.8516C10.3399 81.2729 6.63401 75.9615 3.98041 69.9176C1.3268 63.8736 0 57.2344 0 50C0 42.7656 1.3268 36.1264 3.98041 30.0824C6.63401 24.0385 10.3399 18.7729 15.0981 14.2857C19.9478 9.70696 25.621 6.18132 32.1178 3.70879C38.6145 1.23626 45.706 0 53.3923 0C61.1702 0 68.2617 1.23626 74.6669 3.70879C81.1637 6.18132 86.7912 9.70696 91.5493 14.2857C96.3075 18.7729 100.013 24.0385 102.667 30.0824C105.412 36.1264 106.785 42.7656 106.785 50C106.785 57.2344 105.412 63.9194 102.667 70.0549C100.013 76.0989 96.3075 81.3645 91.5493 85.8516C86.7912 90.3388 81.1637 93.8187 74.6669 96.2912C68.2617 98.7637 61.1702 100 53.3923 100ZM53.3923 77.4725C57.0525 77.4725 60.4381 76.8315 63.5492 75.5494C66.7519 74.2674 69.497 72.4359 71.7846 70.0549C74.1637 67.5824 75.9937 64.652 77.2748 61.2637C78.6473 57.8755 79.3336 54.1209 79.3336 50C79.3336 45.7875 78.6473 42.033 77.2748 38.7363C75.9937 35.348 74.1637 32.4634 71.7846 30.0824C69.497 27.6099 66.7519 25.7326 63.5492 24.4506C60.4381 23.1685 57.0525 22.5275 53.3923 22.5275C49.7322 22.5275 46.3008 23.1685 43.0982 24.4506C39.9871 25.7326 37.242 27.6099 34.8629 30.0824C32.5753 32.4634 30.7452 35.348 29.3727 38.7363C28.0916 42.033 27.4511 45.7875 27.4511 50C27.4511 54.1209 28.0916 57.8755 29.3727 61.2637C30.7452 64.652 32.5753 67.5824 34.8629 70.0549C37.242 72.4359 39.9871 74.2674 43.0982 75.5494C46.3008 76.8315 49.7322 77.4725 53.3923 77.4725Z" fill="#fff"/>
    <path d="M153.669 99.3132C144.153 99.3132 136.741 96.978 131.434 92.3077C126.127 87.5458 123.473 80.4029 123.473 70.8791V7.00549H149.552V70.6044C149.552 73.2601 150.284 75.3663 151.748 76.9231C153.212 78.3883 155.087 79.1209 157.375 79.1209C160.486 79.1209 163.14 78.3425 165.336 76.7857L171.787 95.0549C169.591 96.5201 166.891 97.5733 163.689 98.2143C160.486 98.9469 157.146 99.3132 153.669 99.3132ZM112.63 45.8791V26.3736H166.571V45.8791H112.63Z" fill="#fff"/>
    <path d="M191.588 43.6355V3.25092H206.412V43.6355H191.588ZM178 30.4487V16.4377H220V30.4487H178Z" fill="#fff"/>
  </symbol>

  <symbol id="icon-logo-marketing" viewBox="0 0 154 123" fill="linear-gradient(142.46deg, #5D1CE0 -14.68%, #D954FC 73.76%)" xmlns="http://www.w3.org/2000/svg">
    <path d="M42.5713 96.596C42.5713 94.991 41.9902 93.718 40.8281 92.777C39.666 91.837 38.0335 90.868 35.9307 89.872C33.8278 88.876 31.3099 87.548 28.377 85.888C24.8353 84.283 21.4873 82.595 18.333 80.824C15.234 78.998 12.4948 77.006 10.1152 74.848C7.79102 72.689 5.96482 70.172 4.63672 67.294C3.30862 64.361 2.64452 60.985 2.64452 57.167C2.64452 53.293 3.33632 49.696 4.71972 46.376C6.15852 43.056 8.26142 40.15 11.0283 37.66C13.7952 35.115 17.1709 33.122 21.1553 31.684C25.1396 30.2448 29.7051 29.5254 34.8516 29.5254C41.8796 29.5254 47.9391 30.6875 53.0303 33.012C58.1214 35.281 62.0505 38.573 64.8174 42.89C67.5843 47.151 68.968 52.159 68.968 57.914H41.7412C41.7412 55.645 41.5475 53.791 41.1602 52.353C40.7728 50.858 40.0534 49.752 39.002 49.032C38.0059 48.313 36.5947 47.953 34.7686 47.953C33.8278 47.953 32.8594 48.257 31.8633 48.866C30.8672 49.42 30.0371 50.277 29.373 51.439C28.709 52.546 28.377 53.957 28.377 55.673C28.377 56.89 28.5983 57.942 29.041 58.827C29.5391 59.657 30.2308 60.46 31.1162 61.234C32.0016 61.954 33.0254 62.701 34.1875 63.476C35.4049 64.25 36.8161 65.108 38.4209 66.049C43.18 67.875 47.8838 69.867 52.5322 72.025C57.1807 74.184 61.0544 77.089 64.1533 80.741C67.3076 84.394 68.885 89.402 68.885 95.766C68.885 99.75 68.082 103.375 66.4775 106.64C64.8727 109.905 62.5762 112.755 59.5879 115.189C56.6549 117.624 53.0856 119.478 48.8799 120.751C44.6742 122.024 39.9427 122.66 34.6855 122.66C27.2702 122.66 20.9893 121.194 15.8428 118.261C10.7516 115.328 6.90562 111.592 4.30472 107.055C1.70382 102.517 0.40332 97.841 0.40332 93.026H25.7207C25.776 95.793 26.1911 98.007 26.9658 99.667C27.7406 101.272 28.8197 102.434 30.2031 103.153C31.5866 103.817 33.3298 104.149 35.4326 104.149C37.0374 104.149 38.3656 103.873 39.417 103.319C40.4684 102.711 41.2432 101.853 41.7412 100.746C42.2946 99.584 42.5713 98.201 42.5713 96.596ZM153.636 98.588V121H100.76V98.588H153.636ZM110.638 0.140625V121H82.249V0.140625H110.638ZM146.746 48.119V69.784H100.76V48.119H146.746ZM153.885 0.140625V22.6357H100.76V0.140625H153.885Z" fill="url(#paint0_linear_520_1935)"/>
    <defs>
    <linearGradient id="paint0_linear_520_1935" x1="-18.5806" y1="-20.027" x2="66.8161" y2="119.211" gradientUnits="userSpaceOnUse">
    <stop stop-color="#5D1CE0"/>
    <stop offset="1" stop-color="#D954FC"/>
    </linearGradient>
    </defs>
  </symbol>

  <symbol id="icon-home-resume" viewBox="0 0 24 24" fill="none" xmlns="http://www.w3.org/2000/svg">
  <mask id="mask0_1_224" style="mask-type:luminance" maskUnits="userSpaceOnUse" x="0" y="1" width="22" height="22">
  <path d="M21.2998 22.2998V1.7002H0.700195V22.2998H21.2998Z" fill="white" stroke="white" stroke-width="1.4"/>
  </mask>
  <g mask="url(#mask0_1_224)">
  <path d="M13.7614 1.85163V5.44154C13.7614 6.39085 14.5381 7.16742 15.4873 7.16742H19.0772" stroke="#404040" stroke-width="1.4" stroke-miterlimit="10" stroke-linecap="round" stroke-linejoin="round"/>
  <path d="M13.7615 1.64453H4.44155C3.49233 1.64453 2.71567 2.42124 2.71567 3.37046V20.6295C2.71567 21.5788 3.49233 22.3555 4.44155 22.3555H17.5584C18.5077 22.3555 19.2844 21.5788 19.2844 20.6295V7.16744L13.7615 1.64453Z" stroke="#404040" stroke-width="1.4" stroke-miterlimit="10" stroke-linecap="round" stroke-linejoin="round"/>
  <path d="M5.47708 19.0711H16.5229" stroke="#404040" stroke-width="1.4" stroke-miterlimit="10" stroke-linecap="round" stroke-linejoin="round"/>
  <path d="M5.47708 16.3097H13.7615" stroke="#404040" stroke-width="1.4" stroke-miterlimit="10" stroke-linecap="round" stroke-linejoin="round"/>
  <path d="M9.61923 8.54816H5.47708V4.40601H9.61923V8.54816Z" stroke="#404040" stroke-width="1.4" stroke-miterlimit="10" stroke-linecap="round" stroke-linejoin="round"/>
  </g>
  </symbol>

  
</svg>
